<mxfile host="app.diagrams.net" modified="2023-11-26T18:16:36.574Z" agent="Mozilla/5.0 (Windows NT 10.0; Win64; x64) AppleWebKit/537.36 (KHTML, like Gecko) Chrome/119.0.0.0 Safari/537.36" version="22.1.4" etag="I1x0lPvvnCtaqHq61J_Y" type="github">
  <diagram name="Страница — 1" id="3yKvK8DhuIjJ60HK1tVe">
    <mxGraphModel>
      <root>
        <mxCell id="0" />
        <mxCell id="1" parent="0" />
      </root>
    </mxGraphModel>
  </diagram>
</mxfile>
